<svg xmlns="http://www.w3.org/2000/svg" viewBox="0 0 640 640" role="img" aria-labelledby="title desc">
  <title id="title">Portfolio profile illustration</title>
  <desc id="desc">A clean desk with a laptop, code panels, and a profile badge.</desc>
  <rect width="640" height="640" fill="#eef4f3"/>
  <rect x="88" y="112" width="464" height="320" rx="18" fill="#ffffff" stroke="#dce3e8" stroke-width="8"/>
  <rect x="128" y="160" width="184" height="28" rx="8" fill="#0f766e"/>
  <rect x="128" y="220" width="384" height="18" rx="9" fill="#dce3e8"/>
  <rect x="128" y="264" width="288" height="18" rx="9" fill="#dce3e8"/>
  <rect x="128" y="308" width="336" height="18" rx="9" fill="#dce3e8"/>
  <circle cx="448" cy="180" r="52" fill="#f4a261"/>
  <path d="M408 364c8-54 29-82 40-82s32 28 40 82z" fill="#0f766e"/>
  <rect x="184" y="462" width="272" height="34" rx="12" fill="#17202a"/>
  <rect x="144" y="496" width="352" height="28" rx="14" fill="#5e6b78"/>
  <circle cx="212" cy="386" r="18" fill="#b45309"/>
  <circle cx="268" cy="386" r="18" fill="#0f766e"/>
  <circle cx="324" cy="386" r="18" fill="#17202a"/>
</svg>
